<?xml version="1.0" encoding="UTF-8" standalone="no"?>
<!DOCTYPE svg PUBLIC "-//W3C//DTD SVG 1.1//EN"
 "http://www.w3.org/Graphics/SVG/1.1/DTD/svg11.dtd">
<!-- Generated by graphviz version 2.38.0 (20140413.2041)
 -->
<!-- Title: %3 Pages: 1 -->
<svg width="527pt" height="231pt"
 viewBox="0.00 0.00 527.00 231.00" xmlns="http://www.w3.org/2000/svg" xmlns:xlink="http://www.w3.org/1999/xlink">
<g id="graph0" class="graph" transform="scale(1 1) rotate(0) translate(4 227)">
<title>%3</title>
<polygon fill="#333333" stroke="none" points="-4,4 -4,-227 523,-227 523,4 -4,4"/>
<text text-anchor="middle" x="259.5" y="-9.2" font-family="Times,serif" font-size="16.00" fill="white">Network Map</text>
<!-- SW1 -->
<g id="node1" class="node"><title>SW1</title>
<polygon fill="#006699" stroke="#006699" points="96,-99 4,-99 4,-26 96,-26 96,-99"/>
<text text-anchor="middle" x="50" y="-58.8" font-family="Helvetica,sans-Serif" font-size="14.00" fill="white">SW1</text>
</g>
<!-- R6 -->
<g id="node5" class="node"><title>R6</title>
<polygon fill="#006699" stroke="#006699" points="88.5,-223 11.5,-223 11.5,-150 88.5,-150 88.5,-223"/>
<text text-anchor="middle" x="50" y="-182.8" font-family="Helvetica,sans-Serif" font-size="14.00" fill="white">R6</text>
</g>
<!-- SW1&#45;&#45;R6 -->
<g id="edge1" class="edge"><title>SW1&#45;&#45;R6</title>
<path fill="none" stroke="green" stroke-dasharray="5,2" d="M50,-99.1154C50,-115.01 50,-133.704 50,-149.629"/>
<text text-anchor="middle" x="100" y="-120.8" font-family="Courier,monospace" font-size="14.00" fill="white"> &#160;&#160;&#160;&#160;&#160;&#160;&#160;&#160;&#160;&#160;&#160;</text>
<text text-anchor="middle" x="25" y="-138.429" font-family="Courier,monospace" font-size="14.00" fill="white">Eth0/1</text>
<text text-anchor="middle" x="25" y="-102.915" font-family="Courier,monospace" font-size="14.00" fill="white">Eth0/5</text>
</g>
<!-- R5 -->
<g id="node2" class="node"><title>R5</title>
<polygon fill="#006699" stroke="#006699" points="211.5,-223 134.5,-223 134.5,-150 211.5,-150 211.5,-223"/>
<text text-anchor="middle" x="173" y="-182.8" font-family="Helvetica,sans-Serif" font-size="14.00" fill="white">R5</text>
</g>
<!-- SW2 -->
<g id="node3" class="node"><title>SW2</title>
<polygon fill="#006699" stroke="#006699" points="465,-223 373,-223 373,-150 465,-150 465,-223"/>
<text text-anchor="middle" x="419" y="-182.8" font-family="Helvetica,sans-Serif" font-size="14.00" fill="white">SW2</text>
</g>
<!-- R4 -->
<g id="node4" class="node"><title>R4</title>
<polygon fill="#006699" stroke="#006699" points="334.5,-223 257.5,-223 257.5,-150 334.5,-150 334.5,-223"/>
<text text-anchor="middle" x="296" y="-182.8" font-family="Helvetica,sans-Serif" font-size="14.00" fill="white">R4</text>
</g>
<!-- R3 -->
<g id="node6" class="node"><title>R3</title>
<polygon fill="#006699" stroke="#006699" points="272.5,-99 195.5,-99 195.5,-26 272.5,-26 272.5,-99"/>
<text text-anchor="middle" x="234" y="-58.8" font-family="Helvetica,sans-Serif" font-size="14.00" fill="white">R3</text>
</g>
<!-- R3&#45;&#45;R5 -->
<g id="edge4" class="edge"><title>R3&#45;&#45;R5</title>
<path fill="none" stroke="green" stroke-dasharray="5,2" d="M195.427,-89.3406C186.814,-97.1362 178.814,-106.464 174,-117 169.403,-127.061 168.014,-138.852 168.109,-149.788"/>
<text text-anchor="middle" x="224" y="-120.8" font-family="Courier,monospace" font-size="14.00" fill="white"> &#160;&#160;&#160;&#160;&#160;&#160;&#160;&#160;&#160;&#160;&#160;</text>
<text text-anchor="middle" x="143.109" y="-138.588" font-family="Courier,monospace" font-size="14.00" fill="white">Eth0/0</text>
<text text-anchor="middle" x="170.427" y="-78.1406" font-family="Courier,monospace" font-size="14.00" fill="white">Eth0/2</text>
</g>
<!-- R3&#45;&#45;R4 -->
<g id="edge3" class="edge"><title>R3&#45;&#45;R4</title>
<path fill="none" stroke="green" stroke-dasharray="5,2" d="M263.235,-99.2785C267.175,-105.007 270.915,-111.023 274,-117 279.27,-127.212 283.593,-138.931 286.97,-149.755"/>
<text text-anchor="middle" x="331" y="-120.8" font-family="Courier,monospace" font-size="14.00" fill="white"> &#160;&#160;&#160;&#160;&#160;&#160;&#160;&#160;&#160;&#160;&#160;</text>
<text text-anchor="middle" x="261.97" y="-138.555" font-family="Courier,monospace" font-size="14.00" fill="white">Eth0/0</text>
<text text-anchor="middle" x="238.235" y="-103.079" font-family="Courier,monospace" font-size="14.00" fill="white">Eth0/1</text>
</g>
<!-- R2 -->
<g id="node7" class="node"><title>R2</title>
<polygon fill="#006699" stroke="#006699" points="457.5,-99 380.5,-99 380.5,-26 457.5,-26 457.5,-99"/>
<text text-anchor="middle" x="419" y="-58.8" font-family="Helvetica,sans-Serif" font-size="14.00" fill="white">R2</text>
</g>
<!-- R2&#45;&#45;SW2 -->
<g id="edge2" class="edge"><title>R2&#45;&#45;SW2</title>
<path fill="none" stroke="green" stroke-dasharray="5,2" d="M419,-99.1154C419,-115.01 419,-133.704 419,-149.629"/>
<text text-anchor="middle" x="469" y="-120.8" font-family="Courier,monospace" font-size="14.00" fill="white"> &#160;&#160;&#160;&#160;&#160;&#160;&#160;&#160;&#160;&#160;&#160;</text>
<text text-anchor="middle" x="390" y="-138.429" font-family="Courier,monospace" font-size="14.00" fill="white">Eth0/11</text>
<text text-anchor="middle" x="394" y="-102.915" font-family="Courier,monospace" font-size="14.00" fill="white">Eth0/1</text>
</g>
</g>
</svg>
